<?xml version="1.0" encoding="UTF-8" standalone="no"?>
<!-- Created with Inkscape (http://www.inkscape.org/) -->

<svg
   xmlns:dc="http://purl.org/dc/elements/1.1/"
   xmlns:cc="http://creativecommons.org/ns#"
   xmlns:rdf="http://www.w3.org/1999/02/22-rdf-syntax-ns#"
   xmlns:svg="http://www.w3.org/2000/svg"
   xmlns="http://www.w3.org/2000/svg"
   xmlns:sodipodi="http://sodipodi.sourceforge.net/DTD/sodipodi-0.dtd"
   xmlns:inkscape="http://www.inkscape.org/namespaces/inkscape"
   width="210mm"
   height="297mm"
   viewBox="0 0 744.09448819 1052.3622047"
   id="svg2"
   version="1.1"
   inkscape:version="0.91 r13725"
   sodipodi:docname="SW.svg"
   enable-background="new"
   inkscape:export-filename="SW.png"
   inkscape:export-xdpi="90"
   inkscape:export-ydpi="90">
  <defs
     id="defs4">
    <filter
       inkscape:collect="always"
       style="color-interpolation-filters:sRGB"
       id="filter4399">
      <feBlend
         inkscape:collect="always"
         mode="darken"
         in2="BackgroundImage"
         id="feBlend4401" />
    </filter>
    <clipPath
       clipPathUnits="userSpaceOnUse"
       id="clipPath4180">
      <rect
         style="fill:#ff93ff;fill-opacity:0.6126761"
         id="rect4182"
         width="226.5"
         height="218"
         x="31.125"
         y="447.86221" />
    </clipPath>
  </defs>
  <sodipodi:namedview
     id="base"
     pagecolor="#8fffff"
     bordercolor="#666666"
     borderopacity="1.0"
     inkscape:pageopacity="0"
     inkscape:pageshadow="2"
     inkscape:zoom="0.5"
     inkscape:cx="101.9853"
     inkscape:cy="546.98908"
     inkscape:document-units="px"
     inkscape:current-layer="layer1"
     showgrid="false"
     inkscape:window-width="1280"
     inkscape:window-height="751"
     inkscape:window-x="0"
     inkscape:window-y="1"
     inkscape:window-maximized="1" />
  <metadata
     id="metadata7">
    <rdf:RDF>
      <cc:Work
         rdf:about="">
        <dc:format>image/svg+xml</dc:format>
        <dc:type
           rdf:resource="http://purl.org/dc/dcmitype/StillImage" />
        <dc:title />
      </cc:Work>
    </rdf:RDF>
  </metadata>
  <g
     inkscape:groupmode="layer"
     id="layer2"
     inkscape:label="Northwest"
     style="display:inline" />
  <g
     inkscape:label="Layer 1"
     inkscape:groupmode="layer"
     id="layer1"
     style="display:inline;filter:url(#filter4399)">
    <path
       style="fill:#2eff71;fill-opacity:0;fill-rule:evenodd;stroke:#000000;stroke-width:0;stroke-linecap:butt;stroke-linejoin:miter;stroke-miterlimit:4;stroke-dasharray:none;stroke-opacity:1"
       d="m 270,202.3622 0,210 210,0 0,-210 z"
       id="path3373"
       inkscape:connector-curvature="0"
       sodipodi:nodetypes="ccccc" />
    <path
       style="fill:none;fill-rule:evenodd;stroke:#000000;stroke-width:0;stroke-linecap:butt;stroke-linejoin:miter;stroke-miterlimit:4;stroke-dasharray:none;stroke-opacity:1"
       d="m 50,422.3622 0,210 210,0 0,-210 z"
       id="path3397"
       inkscape:connector-curvature="0"
       sodipodi:nodetypes="ccccc" />
    <path
       style="fill:none;fill-rule:evenodd;stroke:#000000;stroke-width:0;stroke-linecap:butt;stroke-linejoin:miter;stroke-miterlimit:4;stroke-dasharray:none;stroke-opacity:1"
       d="m 490,422.3622 0,210 210,0 0,-210 z"
       id="path3401"
       inkscape:connector-curvature="0"
       sodipodi:nodetypes="ccccc" />
    <path
       style="fill:none;fill-rule:evenodd;stroke:#000000;stroke-width:0;stroke-linecap:butt;stroke-linejoin:miter;stroke-miterlimit:4;stroke-dasharray:none;stroke-opacity:1"
       d="m 270,642.3622 210,0 0,210 -210,0 z"
       id="path3405"
       inkscape:connector-curvature="0"
       sodipodi:nodetypes="ccccc" />
    <path
       style="fill:#2eff71;fill-opacity:0"
       d="m 270.42857,307.50506 0,-104.28571 104.28572,0 104.28571,0 0,104.28571 0,104.28572 -104.28571,0 -104.28572,0 0,-104.28572 z"
       id="path4146"
       inkscape:connector-curvature="0" />
    <path
       style="fill:#2eff71;fill-opacity:0"
       d="m 50.428571,307.50506 0,-104.28571 104.285719,0 104.28571,0 0,104.28571 0,104.28572 -104.28571,0 -104.285719,0 0,-104.28572 z"
       id="path4148"
       inkscape:connector-curvature="0" />
    <path
       style="fill:#2eff71;fill-opacity:0;stroke:none"
       d="m 50.428571,307.50506 0,-104.28571 104.285719,0 104.28571,0 0,104.28571 0,104.28572 -104.28571,0 -104.285719,0 0,-104.28572 z"
       id="path4150"
       inkscape:connector-curvature="0" />
    <path
       style="fill:#2eff71;fill-opacity:0;stroke:none"
       d="m 50.428571,307.50506 0,-104.28571 104.285719,0 104.28571,0 0,104.28571 0,104.28572 -104.28571,0 -104.285719,0 0,-104.28572 z"
       id="path4152"
       inkscape:connector-curvature="0" />
    <path
       style="fill:#2eff71;fill-opacity:0;stroke:none"
       d="m 270.42857,307.50506 0,-104.28571 104.28572,0 104.28571,0 0,104.28571 0,104.28572 -104.28571,0 -104.28572,0 0,-104.28572 z"
       id="path4170"
       inkscape:connector-curvature="0" />
    <path
       style="fill:#2ecc71;fill-opacity:0;stroke:none"
       d="m 50.428571,307.50506 0,-104.28571 104.285719,0 104.28571,0 0,104.28571 0,104.28572 -104.28571,0 -104.285719,0 0,-104.28572 z"
       id="path4172"
       inkscape:connector-curvature="0" />
    <path
       style="fill:#2ecc71;fill-opacity:0;stroke:none"
       d="m 50.428571,307.50506 0,-104.28571 104.285719,0 104.28571,0 0,104.28571 0,104.28572 -104.28571,0 -104.285719,0 0,-104.28572 z"
       id="path4182"
       inkscape:connector-curvature="0" />
    <path
       style="fill:#2ecc71;fill-opacity:0;stroke:#2ecc71;stroke-opacity:0"
       d="m 50.428571,307.50506 0,-104.28571 104.285719,0 104.28571,0 0,104.28571 0,104.28572 -104.28571,0 -104.285719,0 0,-104.28572 z"
       id="path4184"
       inkscape:connector-curvature="0" />
    <path
       style="fill:#2ecc71;fill-opacity:0;stroke:#2ecc71;stroke-width:2.85714293;stroke-opacity:0"
       d="m 50.428571,307.50506 0,-104.28571 104.285719,0 104.28571,0 0,104.28571 0,104.28572 -104.28571,0 -104.285719,0 0,-104.28572 z"
       id="path4194"
       inkscape:connector-curvature="0" />
    <path
       style="fill:#f2f1ef;fill-opacity:0;stroke:none;stroke-width:1px;stroke-linecap:butt;stroke-linejoin:miter;stroke-opacity:1"
       d="m 49.514297,527.31247 c 0,-179.28692 0.167263,-278.40561 0.371696,-220.26376 l 0.371697,105.71246 105.34991,0 105.3499,0 0,-105.36727 0,-105.36727 114.19775,0.36191 114.19774,0.36192 0.36262,105.00536 0.36261,105.00535 105.34986,0 105.34984,0 0,114.5513 0,114.5513 -105.35891,0 -105.35891,0 0,105.35891 0,105.35891 -114.5513,0 -114.5513,0 0,-105.35891 0,-105.35891 -105.3499,0 -105.34991,0 -0.371697,105.71247 C 49.68156,805.71809 49.514297,706.5994 49.514297,527.31247 Z m 431.353413,0 0,-105.35891 -105.71246,-0.36256 -105.71246,-0.36255 0,106.08402 0,106.08402 105.71246,-0.36254 105.71246,-0.36257 0,-105.35891 z"
       id="path5694"
       inkscape:connector-curvature="0" />
    <path
       style="fill:#ffffff;fill-opacity:0;stroke:none;stroke-width:1px;stroke-linecap:butt;stroke-linejoin:miter;stroke-opacity:1"
       d="m 49.514297,527.31247 c 0,-179.28692 0.167263,-278.40561 0.371696,-220.26376 l 0.371697,105.71246 105.34991,0 105.3499,0 0,-105.36727 0,-105.36727 114.19775,0.36191 114.19774,0.36192 0.36262,105.00536 0.36261,105.00535 105.34986,0 105.34984,0 0,114.5513 0,114.5513 -105.35891,0 -105.35891,0 0,105.35891 0,105.35891 -114.5513,0 -114.5513,0 0,-105.35891 0,-105.35891 -105.3499,0 -105.34991,0 -0.371697,105.71247 C 49.68156,805.71809 49.514297,706.5994 49.514297,527.31247 Z m 431.353413,0 0,-105.35891 -105.71246,-0.36256 -105.71246,-0.36255 0,106.08402 0,106.08402 105.71246,-0.36254 105.71246,-0.36257 0,-105.35891 z"
       id="path5696"
       inkscape:connector-curvature="0" />
    <path
       style="fill:#5bbe2c;fill-opacity:0;stroke:none;stroke-width:1px;stroke-linecap:butt;stroke-linejoin:miter;stroke-opacity:1"
       d="m 320.70803,632.3184 -51.26524,-0.38941 0,-104.40771 0,-104.40771 35.00178,-0.93049 c 44.4683,-1.18216 83.97496,-1.1827 135.18087,-0.002 l 40.53517,0.93477 0,104.20416 0,104.20416 -20.15255,0.92192 c -11.0839,0.50705 -35.42605,0.77333 -54.09367,0.59173 -18.66761,-0.1816 -57.01048,-0.50541 -85.20636,-0.71956 z"
       id="path5704"
       inkscape:connector-curvature="0" />
    <path
       style="fill:#5bbe2c;fill-opacity:0;stroke:none;stroke-width:1px;stroke-linecap:butt;stroke-linejoin:miter;stroke-opacity:1"
       d="m 320.70803,632.3184 -51.26524,-0.38941 0,-104.40771 0,-104.40771 35.00178,-0.93049 c 44.4683,-1.18216 83.97496,-1.1827 135.18087,-0.002 l 40.53517,0.93477 0,104.20416 0,104.20416 -20.15255,0.92192 c -11.0839,0.50705 -35.42605,0.77333 -54.09367,0.59173 -18.66761,-0.1816 -57.01048,-0.50541 -85.20636,-0.71956 z"
       id="path5706"
       inkscape:connector-curvature="0" />
    <path
       style="fill:#4caf50;fill-opacity:1;stroke:#4caf50;stroke-width:56.86364746;stroke-linecap:butt;stroke-linejoin:round;stroke-miterlimit:4;stroke-dasharray:none;stroke-opacity:1"
       d="m 73.931824,524.79422 0,-105.33616 105.272636,0.36251 105.27263,0.36254 0.36353,104.97361 0.36356,104.97366 -105.63618,0 -105.636176,0 0,-105.33616 z"
       id="path5712"
       inkscape:connector-curvature="0"
       clip-path="url(#clipPath4180)" />
    <g
       id="g3368"
       transform="translate(-4.5,-194)"
       style="fill:#ffffff;fill-opacity:0">
      <path
         inkscape:connector-curvature="0"
         id="path5692"
         d="m 262.13203,747.23104 0,-105.36727 -106.06601,0 -106.06602,0 0,-114.5513 0,-114.5513 106.06602,0 106.06601,0 0,-105.35891 0,-105.35891 113.8442,0 113.84419,0 0,105.35891 0,105.35891 105.35891,0 105.35891,0 0,114.5513 0,114.5513 -104.64274,0 -104.64275,0 -0.36261,105.00536 -0.36262,105.00536 -114.19774,0.36191 -114.19775,0.36192 0,-105.36728 z m 220.61732,-219.91857 0,-106.06601 -106.06602,0 -106.06601,0 0,106.06601 0,106.06602 106.06601,0 106.06602,0 0,-106.06602 z"
         style="fill:#ffffff;fill-opacity:0;stroke:none;stroke-width:1px;stroke-linecap:butt;stroke-linejoin:miter;stroke-opacity:1" />
    </g>
    <g
       transform="scale(0.82926352,1.2058893)"
       style="font-style:normal;font-variant:normal;font-weight:200;font-stretch:normal;font-size:99.87490082px;line-height:125%;font-family:'.HeitiUI TC';-inkscape-font-specification:'.HeitiUI TC, Ultra-Light';text-align:start;letter-spacing:0px;word-spacing:0px;writing-mode:lr-tb;text-anchor:start;fill:#ffffff;fill-opacity:1;stroke:none;stroke-width:1px;stroke-linecap:butt;stroke-linejoin:miter;stroke-opacity:1"
       id="text4432">
      <path
         d="m 117.80453,475.67983 q 3.39574,5.59299 7.49061,8.68911 4.09488,2.99625 8.48937,2.99625 6.09237,0 10.48687,-3.995 l 0,0.0999 q 2.29712,-1.9975 3.39574,-4.49437 1.09863,-2.49687 1.09863,-5.39325 0,-4.29462 -3.89512,-9.08861 -3.89513,-4.794 -11.28587,-10.48687 -3.69537,-2.79649 -6.49187,-4.99374 -2.69662,-2.29713 -3.89512,-3.69537 -4.99374,-5.593 -4.99374,-12.28462 0,-3.49562 1.1985,-6.29212 1.19849,-2.79649 3.49562,-5.09362 4.69412,-4.59424 11.98499,-4.59424 5.59299,0 9.58799,2.59675 3.99499,2.59674 7.98999,7.98999 -1.09863,0.99875 -2.09738,1.69787 -0.89887,0.69913 -1.89762,1.49813 -2.69662,-3.5955 -5.99249,-5.9925 -3.196,-2.397 -7.79024,-2.397 -5.09362,0 -8.28962,2.99625 -3.196,2.89637 -3.196,7.49062 0,2.29712 0.59925,4.29462 0.69913,1.89762 2.29712,3.5955 1.29838,1.49812 4.09487,3.89512 2.7965,2.39699 7.39075,5.89262 8.58924,6.29211 12.58424,11.58548 3.99499,5.29337 3.99499,11.28587 0,3.89512 -1.39825,7.09112 -1.39825,3.19599 -4.49437,6.09237 -5.79274,5.49311 -13.38323,5.49311 -6.7915,0 -12.08487,-3.39574 -5.19349,-3.49562 -8.98874,-10.68662 l 3.995,-2.39699 z"
         style=""
         id="path4162" />
      <path
         d="m 209.89387,418.85101 -0.29963,0.69912 -0.3995,-1.09862 0.69913,0.3995 z m 22.57172,73.30817 -0.79899,0.3995 q 0.19975,-0.79899 0.3995,-1.39824 l 0.39949,0.99874 z m -45.3432,0.3995 -0.59925,-0.19975 -0.3995,0.19975 0.59925,-1.49812 0.3995,1.49812 z m -0.3995,-1.49812 -19.8751,-72.20955 4.69412,0 15.78023,58.12719 q 1.09862,-2.7965 2.29712,-5.89262 1.29838,-3.196 2.49687,-6.49187 1.29838,-3.29587 2.49688,-6.49187 1.29837,-3.19599 2.397,-5.99249 l 12.58423,-32.55922 21.97248,57.42807 16.17973,-58.12719 4.59425,0 q -5.09362,18.37698 -10.18724,36.15471 -4.99374,17.77773 -10.08736,36.15472 l -22.47186,-59.02607 -22.87135,58.92619 z"
         style=""
         id="path4164" />
    </g>
  </g>
</svg>
